#!OML:ASF E:\emotionWalksFemale\Project 1\Capture day 1\Session 1\Female1.ASF
:FULLY-SPECIFIED
:DEGREES
615
root 9.06579 15.4664 19.0484 359.135 -0.299728 -360.141
lowerback 10.4554 0.00931313 -0.0411286
upperback -3.46284 0.105532 1.08583
thorax -9.5912 0.091989 1.1651
lowerneck -11.3641 -2.11015 -6.06326
upperneck 8.42697 -2.38386 4.74318
head 4.50806 -1.08476 2.27914
rclavicle -9.46712e-015 -3.18055e-015
rhumerus -46.9865 -4.29844 -76.734
rradius 29.5278
rwrist 27.3172
rhand -6.22257 -57.7229
rfingers 7.12502
rthumb 19.6184 633.247
lclavicle -9.46712e-015 -3.18055e-015
lhumerus -40.4363 -2.31317 91.7716
lradius 35.7712
lwrist -11.0384
lhand -0.79311 -31.2613
lfingers 7.12502
lthumb 24.8305 -2.85363
rfemur -0.320206 20.4476 26.96
rtibia 19.5474
rfoot -15.6943 -28.1157
rtoes -5.54319
lfemur -3.23953 -20.8713 -27.4584
ltibia 22.7554
lfoot -24.1945 23.2103
ltoes -12.6723
616
root 9.06804 15.4698 19.0499 359.07 -0.266582 -360.158
lowerback 10.6231 0.0102464 -0.0944251
upperback -3.4291 0.105011 1.14317
thorax -9.65318 0.0971747 1.25731
lowerneck -11.3494 -2.10994 -6.05209
upperneck 8.32927 -2.38395 4.74685
head 4.4755 -1.08408 2.2784
rclavicle -3.8763e-015 4.77083e-015
rhumerus -47.2613 -4.57857 -77.0747
rradius 30.1395
rwrist 26.7959
rhand -6.28463 -57.9168
rfingers 7.12502
rthumb 19.5587 633.047
lclavicle -3.8763e-015 4.77083e-015
lhumerus -41.0084 -2.60222 92.2878
lradius 36.2272
lwrist -10.8866
lhand 0.311079 -30.927
lfingers 7.12502
lthumb 25.8883 -2.66937
rfemur -0.24587 20.3615 26.9902
rtibia 19.5623
rfoot -15.7257 -28.066
rtoes -5.9661
lfemur -3.19544 -20.7772 -27.4513
ltibia 22.7295
lfoot -24.032 23.3291
ltoes -14.4018
617
root 9.07095 15.4679 19.0519 359.005 -0.274929 -360.152
lowerback 10.7392 0.0313334 -0.0921875
upperback -3.38601 0.135278 1.15868
thorax -9.67491 0.112149 1.26723
lowerneck -11.3241 -2.16907 -6.36937
upperneck 8.28247 -2.46019 5.17713
head 4.47063 -1.10628 2.45847
rclavicle -1.37161e-014 -1.19271e-015
rhumerus -47.4958 -4.90841 -77.4402
rradius 30.6723
rwrist 26.5344
rhand -6.03952 -57.9849
rfingers 7.12502
rthumb 19.7944 633.003
lclavicle -1.37161e-014 -1.19271e-015
lhumerus -41.5016 -2.90541 92.7244
lradius 36.5186
lwrist -10.6035
lhand 0.695386 -31.0755
lfingers 7.12502
lthumb 26.2563 -2.87213
rfemur -0.149115 20.3868 26.9952
rtibia 19.5463
rfoot -15.7722 -27.9938
rtoes -5.74192
lfemur -3.11437 -20.8092 -27.4983
ltibia 22.7316
lfoot -24.0346 23.4045
ltoes -14.3919
618
root 9.07503 15.4639 19.0542 358.937 -0.278877 -360.17
lowerback 10.7869 -0.000561978 -0.0586162
upperback -3.32683 0.096606 1.15327
thorax -9.6369 0.0909302 1.24955
lowerneck -11.1641 -2.15208 -6.51974
upperneck 8.07787 -2.45811 5.55777
head 4.38809 -1.08932 2.60226
rclavicle -4.29872e-015 1.39149e-014
rhumerus -47.6153 -5.30268 -77.8267
rradius 31.0355
rwrist 26.491
rhand -6.04776 -57.8267
rfingers 7.12502
rthumb 19.7864 633.16
lclavicle -4.29872e-015 1.39149e-014
lhumerus -41.8317 -2.95955 92.9573
lradius 36.4911
lwrist -10.458
lhand 1.12453 -31.4684
lfingers 7.12502
lthumb 26.667 -3.32687
rfemur -0.0433105 20.3416 27.0249
rtibia 19.5312
rfoot -15.6631 -27.8773
rtoes -5.10151
lfemur -2.98777 -20.8045 -27.5471
ltibia 22.7406
lfoot -23.9259 23.5239
ltoes -15.5198
619
root 9.07704 15.4636 19.0549 358.901 -0.27891 -360.203
lowerback 10.7902 -0.0517618 -0.0607265
upperback -3.25424 0.0265986 1.14927
thorax -9.55752 0.0565761 1.25908
lowerneck -11.0001 -2.10808 -6.34394
upperneck 7.82927 -2.42648 5.54444
head 4.28062 -1.07103 2.5721
rclavicle -1.71452e-015 3.57812e-015
rhumerus -47.6404 -5.63244 -78.2889
rradius 31.3286
rwrist 26.3249
rhand -6.38753 -57.8231
rfingers 7.12502
rthumb 19.4598 633.131
lclavicle -1.71452e-015 3.57812e-015
lhumerus -42.1346 -3.00633 93.1456
lradius 36.4738
lwrist -10.272
lhand 1.52176 -31.5576
lfingers 7.12502
lthumb 27.0471 -3.4745
rfemur -0.0057502 20.2719 27.0646
rtibia 19.5267
rfoot -15.5798 -27.7807
rtoes -4.7219
lfemur -2.93444 -20.6994 -27.5307
ltibia 22.7511
lfoot -23.857 23.6361
ltoes -16.9202
